<svg width="140" height="21" viewBox="0 0 140 21" fill="none" xmlns="http://www.w3.org/2000/svg">
<g clip-path="url(#clip0_1282_928)">
<path d="M0.406131 9.57208C0.14627 9.81821 0.000289674 10.152 0.000289674 10.5C0.000289674 10.848 0.14627 11.1818 0.406131 11.428L9.22752 19.7807C9.35538 19.9061 9.50834 20.0061 9.67746 20.0748C9.84657 20.1436 10.0285 20.1798 10.2125 20.1813C10.3966 20.1829 10.5791 20.1497 10.7494 20.0837C10.9198 20.0177 11.0746 19.9202 11.2047 19.797C11.3349 19.6737 11.4378 19.5272 11.5075 19.3659C11.5772 19.2046 11.6122 19.0318 11.6106 18.8575C11.609 18.6832 11.5708 18.511 11.4982 18.3509C11.4255 18.1907 11.3199 18.0459 11.1875 17.9248L3.34613 10.5L11.1875 3.07521C11.44 2.82767 11.5797 2.49612 11.5766 2.15199C11.5734 1.80786 11.4276 1.47867 11.1706 1.23532C10.9136 0.99197 10.566 0.853936 10.2025 0.850946C9.83909 0.847955 9.48894 0.980248 9.22752 1.21933L0.406131 9.57208ZM1.38613 11.8125L140 11.8125V9.18752L1.38613 9.18752V11.8125Z" fill="#F4CA90"/>
</g>
<defs>
<clipPath id="clip0_1282_928">
<rect width="140" height="21" fill="white" transform="matrix(-1 0 0 -1 140 21)"/>
</clipPath>
</defs>
</svg>
