<svg width="140" height="21" viewBox="0 0 140 21" fill="none" xmlns="http://www.w3.org/2000/svg">
<g clip-path="url(#clip0_1282_930)">
<path d="M139.594 11.4279C139.854 11.1818 140 10.848 140 10.5C140 10.152 139.854 9.81817 139.594 9.57204L130.772 1.21929C130.645 1.09394 130.492 0.993948 130.323 0.925161C130.153 0.856374 129.972 0.820167 129.787 0.818653C129.603 0.817139 129.421 0.850347 129.251 0.916341C129.08 0.982334 128.925 1.07979 128.795 1.20303C128.665 1.32626 128.562 1.4728 128.493 1.6341C128.423 1.79541 128.388 1.96824 128.389 2.14251C128.391 2.31678 128.429 2.48901 128.502 2.64914C128.574 2.80927 128.68 2.9541 128.812 3.07517L136.654 10.5L128.812 17.9248C128.56 18.1723 128.42 18.5039 128.423 18.848C128.427 19.1921 128.572 19.5213 128.829 19.7647C129.086 20.008 129.434 20.1461 129.797 20.1491C130.161 20.152 130.511 20.0198 130.772 19.7807L139.594 11.4279ZM138.614 9.18748H0L0 11.8125H138.614V9.18748Z" fill="#F4CA90"/>
</g>
<defs>
<clipPath id="clip0_1282_930">
<rect width="140" height="21" fill="white"/>
</clipPath>
</defs>
</svg>
