<svg width="15" height="16" viewBox="0 0 15 16" fill="none" xmlns="http://www.w3.org/2000/svg">
<path d="M14.6765 13.0729L12.372 10.6096C11.7251 9.91817 10.6763 9.91817 10.0294 10.6096L9.66884 10.995C9.37869 11.3044 9.17707 11.6958 9.08763 12.1234C8.30649 12.139 7.42311 11.997 6.66755 11.473C6.20346 11.1043 5.76521 10.6998 5.35632 10.2627C5.0109 9.89373 4.68702 9.5024 4.3865 9.09094C3.79765 8.24531 3.64226 7.21909 3.65797 6.31967C4.05795 6.22408 4.42414 6.00858 4.71359 5.69843L5.07414 5.31304C5.72103 4.62158 5.72103 3.50051 5.07414 2.80902L2.76961 0.345735C2.33834 -0.115245 1.63912 -0.115245 1.20788 0.345735L0.812229 0.768741C0.30502 1.31089 0.0453785 2.017 0.0318776 2.72749C-0.0980039 4.22653 0.170588 5.87672 0.808649 7.4997C1.22994 8.57129 1.80835 9.61762 2.51279 10.5902C2.52168 10.6029 2.53012 10.6158 2.53913 10.6284L2.54016 10.6276C2.89982 11.1208 3.28759 11.5898 3.70127 12.0319C4.1288 12.4892 4.58305 12.9171 5.06128 13.313L5.05666 13.3195C5.13634 13.384 5.2176 13.4463 5.30038 13.5063C7.31067 15.0956 9.58286 15.9886 11.6973 15.9885C11.8208 15.9884 11.9439 15.9847 12.0664 15.9785C12.8539 16.082 13.6763 15.8115 14.2809 15.1652L14.6766 14.7423C15.1078 14.2813 15.1078 13.5339 14.6765 13.0729Z" fill="#132028"/>
</svg>
